<svg xmlns="http://www.w3.org/2000/svg" version="1.1" xmlns:xlink="http://www.w3.org/1999/xlink" xmlns:svgjs="http://svgjs.dev/svgjs" width="2600" height="560" preserveAspectRatio="none" viewBox="0 0 2600 560"><g mask="url(&quot;#SvgjsMask4244&quot;)" fill="none"><rect width="2600" height="560" x="0" y="0" fill="url(&quot;#SvgjsLinearGradient4245&quot;)"></rect><path d="M979 331L978 110" stroke-width="10" stroke="url(&quot;#SvgjsLinearGradient4246&quot;)" stroke-linecap="round" class="Down"></path><path d="M1556 286L1555 431" stroke-width="10" stroke="url(&quot;#SvgjsLinearGradient4247&quot;)" stroke-linecap="round" class="Up"></path><path d="M1403 139L1402 462" stroke-width="6" stroke="url(&quot;#SvgjsLinearGradient4246&quot;)" stroke-linecap="round" class="Down"></path><path d="M1700 72L1699 477" stroke-width="8" stroke="url(&quot;#SvgjsLinearGradient4247&quot;)" stroke-linecap="round" class="Up"></path><path d="M955 371L954 -18" stroke-width="6" stroke="url(&quot;#SvgjsLinearGradient4247&quot;)" stroke-linecap="round" class="Up"></path><path d="M558 360L557 728" stroke-width="8" stroke="url(&quot;#SvgjsLinearGradient4247&quot;)" stroke-linecap="round" class="Up"></path><path d="M1796 370L1795 -17" stroke-width="6" stroke="url(&quot;#SvgjsLinearGradient4246&quot;)" stroke-linecap="round" class="Down"></path><path d="M1077 543L1076 794" stroke-width="10" stroke="url(&quot;#SvgjsLinearGradient4247&quot;)" stroke-linecap="round" class="Up"></path><path d="M1016 353L1015 179" stroke-width="10" stroke="url(&quot;#SvgjsLinearGradient4247&quot;)" stroke-linecap="round" class="Up"></path><path d="M117 306L116 -11" stroke-width="8" stroke="url(&quot;#SvgjsLinearGradient4246&quot;)" stroke-linecap="round" class="Down"></path><path d="M1014 367L1013 48" stroke-width="6" stroke="url(&quot;#SvgjsLinearGradient4247&quot;)" stroke-linecap="round" class="Up"></path><path d="M2590 49L2589 -334" stroke-width="6" stroke="url(&quot;#SvgjsLinearGradient4246&quot;)" stroke-linecap="round" class="Down"></path><path d="M889 103L888 -107" stroke-width="8" stroke="url(&quot;#SvgjsLinearGradient4246&quot;)" stroke-linecap="round" class="Down"></path><path d="M1395 545L1394 267" stroke-width="10" stroke="url(&quot;#SvgjsLinearGradient4247&quot;)" stroke-linecap="round" class="Up"></path><path d="M267 413L266 777" stroke-width="10" stroke="url(&quot;#SvgjsLinearGradient4247&quot;)" stroke-linecap="round" class="Up"></path><path d="M621 326L620 57" stroke-width="10" stroke="url(&quot;#SvgjsLinearGradient4246&quot;)" stroke-linecap="round" class="Down"></path><path d="M573 196L572 407" stroke-width="6" stroke="url(&quot;#SvgjsLinearGradient4246&quot;)" stroke-linecap="round" class="Down"></path><path d="M914 470L913 261" stroke-width="8" stroke="url(&quot;#SvgjsLinearGradient4246&quot;)" stroke-linecap="round" class="Down"></path><path d="M2252 254L2251 495" stroke-width="6" stroke="url(&quot;#SvgjsLinearGradient4247&quot;)" stroke-linecap="round" class="Up"></path><path d="M2550 74L2549 -221" stroke-width="6" stroke="url(&quot;#SvgjsLinearGradient4246&quot;)" stroke-linecap="round" class="Down"></path><path d="M1039 330L1038 483" stroke-width="10" stroke="url(&quot;#SvgjsLinearGradient4246&quot;)" stroke-linecap="round" class="Down"></path><path d="M1120 530L1119 824" stroke-width="6" stroke="url(&quot;#SvgjsLinearGradient4246&quot;)" stroke-linecap="round" class="Down"></path><path d="M2117 126L2116 -190" stroke-width="6" stroke="url(&quot;#SvgjsLinearGradient4247&quot;)" stroke-linecap="round" class="Up"></path><path d="M680 218L679 -134" stroke-width="10" stroke="url(&quot;#SvgjsLinearGradient4247&quot;)" stroke-linecap="round" class="Up"></path><path d="M2049 525L2048 750" stroke-width="8" stroke="url(&quot;#SvgjsLinearGradient4247&quot;)" stroke-linecap="round" class="Up"></path><path d="M1732 511L1731 336" stroke-width="10" stroke="url(&quot;#SvgjsLinearGradient4246&quot;)" stroke-linecap="round" class="Down"></path><path d="M572 274L571 554" stroke-width="6" stroke="url(&quot;#SvgjsLinearGradient4247&quot;)" stroke-linecap="round" class="Up"></path><path d="M623 163L622 -24" stroke-width="6" stroke="url(&quot;#SvgjsLinearGradient4246&quot;)" stroke-linecap="round" class="Down"></path><path d="M801 553L800 222" stroke-width="10" stroke="url(&quot;#SvgjsLinearGradient4247&quot;)" stroke-linecap="round" class="Up"></path><path d="M2559 469L2558 739" stroke-width="6" stroke="url(&quot;#SvgjsLinearGradient4246&quot;)" stroke-linecap="round" class="Down"></path><path d="M1935 304L1934 674" stroke-width="8" stroke="url(&quot;#SvgjsLinearGradient4247&quot;)" stroke-linecap="round" class="Up"></path><path d="M1389 539L1388 332" stroke-width="10" stroke="url(&quot;#SvgjsLinearGradient4247&quot;)" stroke-linecap="round" class="Up"></path><path d="M964 432L963 55" stroke-width="10" stroke="url(&quot;#SvgjsLinearGradient4247&quot;)" stroke-linecap="round" class="Up"></path><path d="M1118 484L1117 100" stroke-width="6" stroke="url(&quot;#SvgjsLinearGradient4247&quot;)" stroke-linecap="round" class="Up"></path><path d="M1034 486L1033 743" stroke-width="8" stroke="url(&quot;#SvgjsLinearGradient4247&quot;)" stroke-linecap="round" class="Up"></path><path d="M1736 102L1735 344" stroke-width="8" stroke="url(&quot;#SvgjsLinearGradient4247&quot;)" stroke-linecap="round" class="Up"></path><path d="M1355 137L1354 473" stroke-width="6" stroke="url(&quot;#SvgjsLinearGradient4246&quot;)" stroke-linecap="round" class="Down"></path><path d="M269 405L268 655" stroke-width="6" stroke="url(&quot;#SvgjsLinearGradient4247&quot;)" stroke-linecap="round" class="Up"></path><path d="M2432 224L2431 584" stroke-width="8" stroke="url(&quot;#SvgjsLinearGradient4246&quot;)" stroke-linecap="round" class="Down"></path><path d="M1116 524L1115 299" stroke-width="8" stroke="url(&quot;#SvgjsLinearGradient4246&quot;)" stroke-linecap="round" class="Down"></path><path d="M927 444L926 243" stroke-width="8" stroke="url(&quot;#SvgjsLinearGradient4247&quot;)" stroke-linecap="round" class="Up"></path><path d="M36 430L35 271" stroke-width="10" stroke="url(&quot;#SvgjsLinearGradient4247&quot;)" stroke-linecap="round" class="Up"></path><path d="M2074 28L2073 -389" stroke-width="10" stroke="url(&quot;#SvgjsLinearGradient4247&quot;)" stroke-linecap="round" class="Up"></path><path d="M1729 419L1728 707" stroke-width="10" stroke="url(&quot;#SvgjsLinearGradient4246&quot;)" stroke-linecap="round" class="Down"></path><path d="M2239 4L2238 -329" stroke-width="8" stroke="url(&quot;#SvgjsLinearGradient4246&quot;)" stroke-linecap="round" class="Down"></path><path d="M787 263L786 -141" stroke-width="6" stroke="url(&quot;#SvgjsLinearGradient4246&quot;)" stroke-linecap="round" class="Down"></path><path d="M1261 180L1260 351" stroke-width="10" stroke="url(&quot;#SvgjsLinearGradient4247&quot;)" stroke-linecap="round" class="Up"></path><path d="M444 524L443 795" stroke-width="8" stroke="url(&quot;#SvgjsLinearGradient4246&quot;)" stroke-linecap="round" class="Down"></path><path d="M745 486L744 669" stroke-width="6" stroke="url(&quot;#SvgjsLinearGradient4247&quot;)" stroke-linecap="round" class="Up"></path><path d="M766 195L765 4" stroke-width="10" stroke="url(&quot;#SvgjsLinearGradient4246&quot;)" stroke-linecap="round" class="Down"></path><path d="M2008 223L2007 456" stroke-width="8" stroke="url(&quot;#SvgjsLinearGradient4247&quot;)" stroke-linecap="round" class="Up"></path><path d="M874 368L873 597" stroke-width="6" stroke="url(&quot;#SvgjsLinearGradient4246&quot;)" stroke-linecap="round" class="Down"></path><path d="M2158 181L2157 350" stroke-width="6" stroke="url(&quot;#SvgjsLinearGradient4247&quot;)" stroke-linecap="round" class="Up"></path><path d="M642 545L641 161" stroke-width="10" stroke="url(&quot;#SvgjsLinearGradient4246&quot;)" stroke-linecap="round" class="Down"></path><path d="M877 524L876 240" stroke-width="6" stroke="url(&quot;#SvgjsLinearGradient4246&quot;)" stroke-linecap="round" class="Down"></path><path d="M590 198L589 568" stroke-width="6" stroke="url(&quot;#SvgjsLinearGradient4247&quot;)" stroke-linecap="round" class="Up"></path><path d="M951 176L950 359" stroke-width="10" stroke="url(&quot;#SvgjsLinearGradient4246&quot;)" stroke-linecap="round" class="Down"></path><path d="M2504 510L2503 326" stroke-width="6" stroke="url(&quot;#SvgjsLinearGradient4246&quot;)" stroke-linecap="round" class="Down"></path><path d="M493 130L492 457" stroke-width="6" stroke="url(&quot;#SvgjsLinearGradient4247&quot;)" stroke-linecap="round" class="Up"></path><path d="M2075 58L2074 -203" stroke-width="10" stroke="url(&quot;#SvgjsLinearGradient4246&quot;)" stroke-linecap="round" class="Down"></path><path d="M1426 371L1425 666" stroke-width="8" stroke="url(&quot;#SvgjsLinearGradient4246&quot;)" stroke-linecap="round" class="Down"></path><path d="M1772 290L1771 -10" stroke-width="8" stroke="url(&quot;#SvgjsLinearGradient4247&quot;)" stroke-linecap="round" class="Up"></path><path d="M1038 477L1037 781" stroke-width="8" stroke="url(&quot;#SvgjsLinearGradient4247&quot;)" stroke-linecap="round" class="Up"></path><path d="M730 318L729 -30" stroke-width="6" stroke="url(&quot;#SvgjsLinearGradient4246&quot;)" stroke-linecap="round" class="Down"></path><path d="M1496 16L1495 -127" stroke-width="10" stroke="url(&quot;#SvgjsLinearGradient4247&quot;)" stroke-linecap="round" class="Up"></path></g><defs><mask id="SvgjsMask4244"><rect width="2600" height="560" fill="#ffffff"></rect></mask><linearGradient x1="80.38%" y1="-91.07%" x2="19.62%" y2="191.07%" gradientUnits="userSpaceOnUse" id="SvgjsLinearGradient4245"><stop stop-color="#0e2a47" offset="0"></stop><stop stop-color="rgba(186, 31, 121, 0.95)" offset="1"></stop></linearGradient><linearGradient x1="0%" y1="0%" x2="0%" y2="100%" id="SvgjsLinearGradient4246"><stop stop-color="rgba(153, 18, 136, 0)" offset="0"></stop><stop stop-color="rgba(153, 18, 136, 1)" offset="1"></stop></linearGradient><linearGradient x1="0%" y1="100%" x2="0%" y2="0%" id="SvgjsLinearGradient4247"><stop stop-color="rgba(153, 18, 136, 0)" offset="0"></stop><stop stop-color="rgba(153, 18, 136, 1)" offset="1"></stop></linearGradient></defs></svg>