<svg xmlns="http://www.w3.org/2000/svg" version="1.1" xmlns:xlink="http://www.w3.org/1999/xlink" xmlns:svgjs="http://svgjs.dev/svgjs" width="2400" height="560" preserveAspectRatio="none" viewBox="0 0 2400 560"><g mask="url(&quot;#SvgjsMask2143&quot;)" fill="none"><rect width="2400" height="560" x="0" y="0" fill="url(&quot;#SvgjsLinearGradient2144&quot;)"></rect><path d="M1288.1 581.58C1443.64 527.33 1381.37 69.72 1700.07 67.31 2018.78 64.9 2311.96 267.45 2524.02 268.91" stroke="rgba(126, 23, 130, 0.58)" stroke-width="2"></path><path d="M957.58 647.06C1141.18 624.81 1102.13 212.33 1555.59 211.6 2009.05 210.87 2449.66 379.19 2751.6 379.6" stroke="rgba(126, 23, 130, 0.58)" stroke-width="2"></path><path d="M462.78 579.23C654.53 578.89 841.64 462.51 1220.86 462.5 1600.08 462.49 1599.9 532.5 1978.94 532.5 2357.98 532.5 2546.69 462.57 2737.02 462.5" stroke="rgba(126, 23, 130, 0.58)" stroke-width="2"></path><path d="M460.25 621.48C671.05 596.01 787.35 126.93 1147.17 121.96 1506.99 116.99 1490.63 191.96 1834.08 191.96 2177.54 191.96 2348.38 122.05 2521 121.96" stroke="rgba(126, 23, 130, 0.58)" stroke-width="2"></path><path d="M678.17 620.2C961.64 606.11 1181.02 110.69 1692.4 110.14 2203.79 109.59 2445.71 354.78 2706.64 356.54" stroke="rgba(126, 23, 130, 0.58)" stroke-width="2"></path></g><defs><mask id="SvgjsMask2143"><rect width="2400" height="560" fill="#ffffff"></rect></mask><linearGradient x1="19.17%" y1="182.14%" x2="80.83%" y2="-82.14%" gradientUnits="userSpaceOnUse" id="SvgjsLinearGradient2144"><stop stop-color="#0e2a47" offset="0"></stop><stop stop-color="rgba(43, 5, 17, 1)" offset="1"></stop></linearGradient></defs></svg>