<svg xmlns="http://www.w3.org/2000/svg" version="1.1" xmlns:xlink="http://www.w3.org/1999/xlink" xmlns:svgjs="http://svgjs.dev/svgjs" width="2500" height="1000" preserveAspectRatio="none" viewBox="0 0 2500 1000"><g mask="url(&quot;#SvgjsMask1259&quot;)" fill="none"><rect width="2500" height="1000" x="0" y="0" fill="url(&quot;#SvgjsLinearGradient1260&quot;)"></rect><path d="M -42.568478451034025,663 C 124.23,599.4 457.83,353.6 791.431521548966,345 C 1125.03,336.4 1291.83,591 1625.431521548966,620 C 1959.03,649 2125.83,506.6 2459.431521548966,490 C 2793.03,473.4 3285.32,564.6 3293.431521548966,537 C 3301.55,509.4 2658.69,389 2500,352" stroke="rgba(120, 51, 194, 0.58)" stroke-width="2"></path><path d="M -1417.6821918455782,337 C -1250.88,402.8 -917.28,635.4 -583.6821918455782,666 C -250.08,696.6 -83.28,477 250.31780815442175,490 C 583.92,503 750.72,748.4 1084.3178081544218,731 C 1417.92,713.6 1635.18,403 1918.3178081544218,403 C 2201.45,403 2383.66,665.4 2500,731" stroke="rgba(120, 51, 194, 0.58)" stroke-width="2"></path><path d="M -480.83990435984646,453 C -314.04,509.4 19.56,740.2 353.16009564015354,735 C 686.76,729.8 853.56,455.6 1187.1600956401535,427 C 1520.76,398.4 1687.56,605.2 2021.1600956401535,592 C 2354.76,578.8 2759.39,370.8 2855.1600956401535,361 C 2950.93,351.2 2571.03,506.6 2500,543" stroke="rgba(120, 51, 194, 0.58)" stroke-width="2"></path><path d="M -1240.4757520713117,546 C -1073.68,496.4 -740.08,281.6 -406.47575207131166,298 C -72.88,314.4 93.92,609.8 427.52424792868834,628 C 761.12,646.2 927.92,377.8 1261.5242479286883,389 C 1595.12,400.2 1847.83,683 2095.5242479286885,684 C 2343.22,685 2419.1,452 2500,394" stroke="rgba(120, 51, 194, 0.58)" stroke-width="2"></path></g><defs><mask id="SvgjsMask1259"><rect width="2500" height="1000" fill="#ffffff"></rect></mask><linearGradient x1="50%" y1="100%" x2="50%" y2="0%" gradientUnits="userSpaceOnUse" id="SvgjsLinearGradient1260"><stop stop-color="#0e2a47" offset="0"></stop><stop stop-color="rgba(125, 0, 81, 1)" offset="1"></stop></linearGradient></defs></svg>