<?xml version="1.0" encoding="UTF-8" standalone="no"?>
<svg
   width="379.73563"
   height="86.293533"
   viewBox="0 0 379.73563 86.293533"
   version="1.1"
   id="svg1"
   xmlns="http://www.w3.org/2000/svg"
   xmlns:svg="http://www.w3.org/2000/svg">
  <defs
     id="defs1" />
  <g
     id="svgGroup"
     stroke-linecap="round"
     fill-rule="evenodd"
     font-size="12px"
     stroke="#370f87"
     stroke-width="2mm"
     fill="#370f87"
     style="fill:#370f87;stroke:#370f87;stroke-width:2mm"
     transform="matrix(0.89833686,0,0,0.89833686,3.395289,3.3954104)">
    <path
       d="m 0,66.55 v -66 H 8.55 V 58.8 H 34.5 v 7.75 z"
       id="0" />
    <path
       d="M 83.5,47.8 H 51.05 a 15.762,15.762 0 0 0 0.761,4.73 14.292,14.292 0 0 0 0.839,2.02 q 1.55,3.05 4.625,4.85 a 12.614,12.614 0 0 0 3.789,1.431 q 1.583,0.334 3.406,0.366 a 22.051,22.051 0 0 0 0.38,0.003 q 3.271,0 5.709,-0.834 a 11.959,11.959 0 0 0 0.766,-0.291 q 2.584,-1.086 4.258,-2.593 a 10.919,10.919 0 0 0 0.117,-0.107 21.787,21.787 0 0 0 0.97,-0.952 q 0.475,-0.499 0.841,-0.96 A 8.603,8.603 0 0 0 78.15,54.55 l 4.25,5.25 q -1.65,2.4 -4.025,4.2 a 15.676,15.676 0 0 1 -3.182,1.847 20.498,20.498 0 0 1 -2.593,0.928 q -2.643,0.758 -6.192,0.927 A 44.413,44.413 0 0 1 64.3,67.75 25.902,25.902 0 0 1 58.548,67.14 19.869,19.869 0 0 1 52.875,64.925 Q 48.05,62.1 45.45,57.075 A 23.125,23.125 0 0 1 43.104,49.469 29.373,29.373 0 0 1 42.85,45.55 25.289,25.289 0 0 1 43.702,38.881 21.808,21.808 0 0 1 45.3,34.725 Q 47.75,29.9 52.425,27.1 A 19.253,19.253 0 0 1 58.837,24.727 26.435,26.435 0 0 1 63.7,24.3 q 6.05,0 10.525,2.525 4.475,2.525 6.95,7.125 a 20.15,20.15 0 0 1 2.035,5.921 27.899,27.899 0 0 1 0.44,5.079 10.779,10.779 0 0 1 -0.003,0.235 q -0.007,0.32 -0.031,0.847 A 91.418,91.418 0 0 1 83.6,46.375 54.682,54.682 0 0 1 83.575,46.842 Q 83.538,47.499 83.5,47.8 Z M 51.35,41.25 h 24 a 9.312,9.312 0 0 0 -0.283,-2.01 q -0.23,-0.928 -0.645,-1.926 A 17.028,17.028 0 0 0 74.175,36.75 9.942,9.942 0 0 0 71.714,33.469 12.563,12.563 0 0 0 70.55,32.55 Q 68.475,31.098 65.196,30.851 A 18.586,18.586 0 0 0 63.8,30.8 18.622,18.622 0 0 0 60.979,31.001 q -1.523,0.234 -2.769,0.739 a 9.224,9.224 0 0 0 -1.485,0.76 12.364,12.364 0 0 0 -2.195,1.753 9.729,9.729 0 0 0 -1.73,2.372 15.189,15.189 0 0 0 -0.917,2.152 q -0.424,1.27 -0.533,2.473 z"
       id="1" />
    <path
       d="m 134.75,66.55 h -8.5 v -8 a 4.484,4.484 0 0 1 -0.333,0.755 q -0.403,0.745 -1.179,1.723 A 26.453,26.453 0 0 1 123.925,62 q -1.925,2.2 -5.25,3.975 a 14.803,14.803 0 0 1 -4.584,1.52 19.801,19.801 0 0 1 -3.241,0.255 q -5.7,0 -10.325,-2.7 -4.625,-2.7 -7.35,-7.575 a 21.187,21.187 0 0 1 -2.403,-7.12 27.778,27.778 0 0 1 -0.322,-4.305 26.643,26.643 0 0 1 0.599,-5.772 20.682,20.682 0 0 1 2.126,-5.653 q 2.725,-4.875 7.35,-7.6 a 19.842,19.842 0 0 1 9.793,-2.719 23.536,23.536 0 0 1 0.532,-0.006 20.831,20.831 0 0 1 3.792,0.329 15.228,15.228 0 0 1 3.933,1.271 21.999,21.999 0 0 1 2.617,1.496 q 1.522,1.023 2.633,2.204 a 17.129,17.129 0 0 1 0.959,1.104 q 0.897,1.135 1.236,2.064 a 3.75,3.75 0 0 1 0.13,0.432 v -7.7 h 8.6 z m -42.2,13.85 5.7,-5.45 q 0.778,1.065 2.01,2.248 a 27.517,27.517 0 0 0 0.565,0.527 10.518,10.518 0 0 0 1.647,1.209 q 1.203,0.726 2.778,1.316 a 14.311,14.311 0 0 0 2.339,0.64 q 1.209,0.231 2.627,0.332 a 32.941,32.941 0 0 0 2.334,0.078 17.159,17.159 0 0 0 3.472,-0.334 12.262,12.262 0 0 0 3.978,-1.541 q 3.05,-1.875 4.65,-5.075 1.6,-3.2 1.6,-7.2 V 65.8 h 8.5 v 1.9 a 26.226,26.226 0 0 1 -0.483,5.166 q -0.672,3.348 -2.281,6 a 16.516,16.516 0 0 1 -0.161,0.259 q -2.925,4.625 -7.875,7 a 24.227,24.227 0 0 1 -8.1,2.227 29.7,29.7 0 0 1 -3,0.148 q -4.85,0 -8.775,-1 A 27.103,27.103 0 0 1 100.187,86.205 21.243,21.243 0 0 1 97.225,84.675 17.779,17.779 0 0 1 94.342,82.458 14.509,14.509 0 0 1 92.55,80.4 Z m 6.5,-34.35 a 17.055,17.055 0 0 0 0.425,3.893 13.187,13.187 0 0 0 1.525,3.807 14.042,14.042 0 0 0 3.854,4.243 13.592,13.592 0 0 0 1.221,0.782 q 3.125,1.775 6.675,1.775 a 13.725,13.725 0 0 0 4.282,-0.651 12.284,12.284 0 0 0 2.518,-1.149 q 3,-1.8 4.75,-5.075 a 14.672,14.672 0 0 0 1.543,-4.761 19.154,19.154 0 0 0 0.207,-2.864 18.303,18.303 0 0 0 -0.411,-3.962 14.278,14.278 0 0 0 -1.339,-3.663 13.282,13.282 0 0 0 -3.286,-4.062 12.721,12.721 0 0 0 -1.464,-1.038 12.618,12.618 0 0 0 -5.978,-1.803 15.303,15.303 0 0 0 -0.822,-0.022 q -3.55,0 -6.675,1.8 -3.125,1.8 -5.075,5.05 a 13.496,13.496 0 0 0 -1.72,4.783 17.802,17.802 0 0 0 -0.23,2.917 z"
       id="2" />
    <path
       d="m 156.4,66.55 h -8.7 V 25.5 h 8.7 z M 148.178,9.827 a 5.481,5.481 0 0 0 3.972,1.623 6.87,6.87 0 0 0 0.037,0 5.626,5.626 0 0 0 4.063,-1.675 q 1.7,-1.675 1.7,-4.025 0,-1.6 -0.8,-2.875 Q 156.35,1.6 155.025,0.8 153.7,0 152.15,0 a 5.639,5.639 0 0 0 -1.863,0.303 5.599,5.599 0 0 0 -2.162,1.397 q -1.675,1.7 -1.675,4.05 a 6.546,6.546 0 0 0 0,0.073 5.483,5.483 0 0 0 1.675,3.952 6.708,6.708 0 0 0 0.053,0.052 z"
       id="3" />
    <path
       d="m 198.75,28.1 -3.45,5.5 a 5.968,5.968 0 0 0 -0.683,-0.52 q -0.778,-0.518 -2.019,-1.101 a 32.046,32.046 0 0 0 -0.898,-0.404 13.715,13.715 0 0 0 -4.047,-1.036 16.876,16.876 0 0 0 -1.753,-0.089 14.837,14.837 0 0 0 -2.766,0.245 q -1.685,0.32 -3.05,1.057 a 9.248,9.248 0 0 0 -0.134,0.073 5.444,5.444 0 0 0 -1.344,1.034 4.165,4.165 0 0 0 -1.106,2.941 q 0,2.6 2.525,4.125 a 16.342,16.342 0 0 0 2.136,1.07 q 1.983,0.83 4.639,1.455 a 34.95,34.95 0 0 1 5.622,1.82 31.856,31.856 0 0 1 0.753,0.33 13.183,13.183 0 0 1 3.385,2.182 11.865,11.865 0 0 1 1.44,1.543 8.301,8.301 0 0 1 1.457,3.018 q 0.316,1.196 0.378,2.609 a 15.987,15.987 0 0 1 0.015,0.698 14.428,14.428 0 0 1 -0.267,2.846 10.368,10.368 0 0 1 -1.233,3.279 q -1.5,2.525 -4.05,4.05 -2.55,1.525 -5.7,2.225 -3.15,0.7 -6.4,0.7 a 32.161,32.161 0 0 1 -3.612,-0.194 24.183,24.183 0 0 1 -3.238,-0.581 31.41,31.41 0 0 1 -2.317,-0.679 q -1.133,-0.383 -2.088,-0.82 a 16.517,16.517 0 0 1 -0.72,-0.351 32.356,32.356 0 0 1 -1.078,-0.583 q -1.03,-0.584 -1.674,-1.074 A 7.061,7.061 0 0 1 167.2,63.25 l 3.45,-6.2 a 8.588,8.588 0 0 0 0.969,0.791 q 1.077,0.767 2.741,1.587 a 34.868,34.868 0 0 0 0.565,0.272 14.631,14.631 0 0 0 4.37,1.249 18.625,18.625 0 0 0 2.405,0.151 16.241,16.241 0 0 0 2.812,-0.229 q 1.579,-0.278 2.854,-0.892 a 8.723,8.723 0 0 0 1.134,-0.654 6.66,6.66 0 0 0 1.507,-1.381 5.111,5.111 0 0 0 1.093,-3.244 6.01,6.01 0 0 0 -0.176,-1.493 4.312,4.312 0 0 0 -1.074,-1.957 7.728,7.728 0 0 0 -1.568,-1.24 q -0.748,-0.455 -1.66,-0.813 A 12.962,12.962 0 0 0 186.5,49.15 34.809,34.809 0 0 0 183.719,48.228 42.604,42.604 0 0 0 181.9,47.75 Q 179.5,47.2 177.225,46.3 174.95,45.4 173.075,43.975 171.2,42.55 170.1,40.475 169,38.4 169,35.6 q 0,-3.55 2.25,-6.075 a 13.487,13.487 0 0 1 3.755,-2.916 17.2,17.2 0 0 1 2.145,-0.959 q 3.65,-1.35 7.95,-1.35 a 27.951,27.951 0 0 1 3.834,0.254 23.537,23.537 0 0 1 2.141,0.396 33.474,33.474 0 0 1 2.285,0.617 q 1.376,0.427 2.515,0.933 a 27.233,27.233 0 0 1 0.939,0.438 q 1.298,0.637 1.936,1.162 z"
       id="4" />
    <path
       d="m 210.2,66.55 v -66 h 23.05 a 22.239,22.239 0 0 1 6.455,0.913 19.838,19.838 0 0 1 3.27,1.312 q 4.375,2.225 7,6.5 a 17.27,17.27 0 0 1 2.192,5.738 24.132,24.132 0 0 1 0.433,4.687 25.382,25.382 0 0 1 -0.341,4.28 q -0.422,2.464 -1.365,4.477 a 14.299,14.299 0 0 1 -0.719,1.343 19.94,19.94 0 0 1 -2.488,3.316 15.312,15.312 0 0 1 -3.337,2.709 19.671,19.671 0 0 1 -2.48,1.262 q -1.349,0.563 -2.61,0.804 a 10.165,10.165 0 0 1 -1.21,0.159 l 16.35,28.5 h -9.7 l -15.3,-27.9 h -10.65 v 27.9 z M 218.75,7.7 v 24.6 h 11.5 a 19.402,19.402 0 0 0 4.376,-0.468 13.839,13.839 0 0 0 5.374,-2.482 9.246,9.246 0 0 0 3.215,-4.754 q 0.635,-2.055 0.635,-4.696 a 17.374,17.374 0 0 0 -0.32,-3.453 q -0.405,-1.996 -1.324,-3.501 A 8.45,8.45 0 0 0 240.025,10.55 13.958,13.958 0 0 0 234.593,8.135 20.075,20.075 0 0 0 230.3,7.7 Z"
       id="5" />
    <path
       d="m 306.9,66.55 h -8.5 v -8 a 4.484,4.484 0 0 1 -0.333,0.755 q -0.403,0.745 -1.179,1.723 A 26.453,26.453 0 0 1 296.075,62 q -1.925,2.2 -5.25,3.975 a 14.803,14.803 0 0 1 -4.584,1.52 A 19.801,19.801 0 0 1 283,67.75 q -5.7,0 -10.325,-2.7 -4.625,-2.7 -7.35,-7.575 a 21.187,21.187 0 0 1 -2.403,-7.12 27.778,27.778 0 0 1 -0.322,-4.305 26.643,26.643 0 0 1 0.599,-5.772 20.682,20.682 0 0 1 2.126,-5.653 q 2.725,-4.875 7.35,-7.6 a 19.842,19.842 0 0 1 9.793,-2.719 23.536,23.536 0 0 1 0.532,-0.006 20.831,20.831 0 0 1 3.792,0.329 15.228,15.228 0 0 1 3.933,1.271 21.999,21.999 0 0 1 2.617,1.496 q 1.522,1.023 2.633,2.204 a 17.129,17.129 0 0 1 0.959,1.104 q 0.897,1.135 1.236,2.064 a 3.75,3.75 0 0 1 0.13,0.432 v -7.7 h 8.6 z m -35.7,-20.5 a 17.055,17.055 0 0 0 0.425,3.893 13.187,13.187 0 0 0 1.525,3.807 14.042,14.042 0 0 0 3.854,4.243 13.592,13.592 0 0 0 1.221,0.782 q 3.125,1.775 6.675,1.775 a 13.725,13.725 0 0 0 4.282,-0.651 12.284,12.284 0 0 0 2.518,-1.149 q 3,-1.8 4.75,-5.075 a 14.672,14.672 0 0 0 1.543,-4.761 19.154,19.154 0 0 0 0.207,-2.864 18.303,18.303 0 0 0 -0.411,-3.962 14.278,14.278 0 0 0 -1.339,-3.663 13.282,13.282 0 0 0 -3.286,-4.062 A 12.721,12.721 0 0 0 291.7,33.325 12.618,12.618 0 0 0 285.722,31.522 15.303,15.303 0 0 0 284.9,31.5 q -3.55,0 -6.675,1.8 -3.125,1.8 -5.075,5.05 a 13.496,13.496 0 0 0 -1.72,4.783 17.802,17.802 0 0 0 -0.23,2.917 z"
       id="6" />
    <path
       d="M 315.05,32.95 V 25.5 h 8.05 V 8.65 h 8.65 V 25.5 h 10.55 v 7.45 h -10.55 v 20.3 a 16.19,16.19 0 0 0 0.101,1.875 q 0.229,1.957 0.977,3.139 a 4.375,4.375 0 0 0 0.197,0.286 4.218,4.218 0 0 0 1.44,1.248 q 0.876,0.452 1.985,0.452 1.247,0 2.128,-0.301 a 3.543,3.543 0 0 0 0.822,-0.399 26.264,26.264 0 0 0 0.364,-0.247 q 0.545,-0.377 0.772,-0.585 A 1.114,1.114 0 0 0 340.65,58.6 l 3.45,6.4 q -0.281,0.234 -1.437,0.862 A 52.056,52.056 0 0 1 342.5,65.95 q -1.3,0.7 -3.35,1.25 a 15.142,15.142 0 0 1 -2.076,0.395 q -1.026,0.126 -2.183,0.15 a 26.471,26.471 0 0 1 -0.541,0.005 12.984,12.984 0 0 1 -4.027,-0.6 10.894,10.894 0 0 1 -3.998,-2.325 8.907,8.907 0 0 1 -2.368,-3.637 Q 323.1,58.824 323.1,55.55 v -22.6 z"
       id="7" />
    <path
       d="m 361.3,66.55 h -8.7 V 25.5 h 8.7 z M 353.078,9.827 a 5.481,5.481 0 0 0 3.972,1.623 6.87,6.87 0 0 0 0.037,0 5.626,5.626 0 0 0 4.063,-1.675 q 1.7,-1.675 1.7,-4.025 0,-1.6 -0.8,-2.875 Q 361.25,1.6 359.925,0.8 358.6,0 357.05,0 a 5.639,5.639 0 0 0 -1.863,0.303 5.599,5.599 0 0 0 -2.162,1.397 q -1.675,1.7 -1.675,4.05 a 6.546,6.546 0 0 0 0,0.073 5.483,5.483 0 0 0 1.675,3.952 6.708,6.708 0 0 0 0.053,0.052 z"
       id="8" />
    <path
       d="m 387.081,66.898 a 24.102,24.102 0 0 0 6.519,0.852 q 6.3,0 11.175,-2.85 4.875,-2.85 7.625,-7.725 a 20.635,20.635 0 0 0 1.793,-4.213 23.556,23.556 0 0 0 0.957,-6.812 26.521,26.521 0 0 0 -0.046,-1.565 22.045,22.045 0 0 0 -2.704,-9.535 q -2.75,-4.95 -7.625,-7.85 a 19.944,19.944 0 0 0 -4.711,-2.033 23.316,23.316 0 0 0 -6.464,-0.867 26.05,26.05 0 0 0 -2.521,0.12 21.037,21.037 0 0 0 -8.754,2.78 q -4.925,2.9 -7.725,7.85 -2.8,4.95 -2.8,11.1 0,6.15 2.8,11.025 2.8,4.875 7.725,7.725 a 20.461,20.461 0 0 0 4.756,1.998 z M 393.6,60.3 a 14.593,14.593 0 0 0 3.689,-0.448 11.829,11.829 0 0 0 3.286,-1.402 Q 403.55,56.6 405.2,53.375 A 15.097,15.097 0 0 0 406.759,47.953 18.567,18.567 0 0 0 406.85,46.1 17.094,17.094 0 0 0 406.284,41.629 14.684,14.684 0 0 0 405.2,38.8 q -1.65,-3.25 -4.625,-5.15 A 12.05,12.05 0 0 0 395.536,31.869 15.373,15.373 0 0 0 393.6,31.75 q -4.05,0 -7.05,1.9 -3,1.9 -4.675,5.15 a 15.175,15.175 0 0 0 -1.606,5.688 18.488,18.488 0 0 0 -0.069,1.612 16.846,16.846 0 0 0 0.53,4.295 14.36,14.36 0 0 0 1.145,2.98 q 1.675,3.225 4.675,5.075 a 12.371,12.371 0 0 0 4.855,1.704 15.983,15.983 0 0 0 2.195,0.146 z"
       id="9" />
  </g>
</svg>
