<svg xmlns="http://www.w3.org/2000/svg" version="1.1" xmlns:xlink="http://www.w3.org/1999/xlink" xmlns:svgjs="http://svgjs.dev/svgjs" width="1440" height="560" preserveAspectRatio="none" viewBox="0 0 1440 560"><g mask="url(&quot;#SvgjsMask2332&quot;)" fill="none"><rect width="1440" height="560" x="0" y="0" fill="url(&quot;#SvgjsLinearGradient2333&quot;)"></rect><path d="M774 51L773 -148" stroke-width="8" stroke="url(&quot;#SvgjsLinearGradient2334&quot;)" stroke-linecap="round" class="Down"></path><path d="M840 227L839 -152" stroke-width="10" stroke="url(&quot;#SvgjsLinearGradient2334&quot;)" stroke-linecap="round" class="Down"></path><path d="M568 303L567 653" stroke-width="8" stroke="url(&quot;#SvgjsLinearGradient2334&quot;)" stroke-linecap="round" class="Down"></path><path d="M743 25L742 -270" stroke-width="8" stroke="url(&quot;#SvgjsLinearGradient2335&quot;)" stroke-linecap="round" class="Up"></path><path d="M1194 166L1193 333" stroke-width="6" stroke="url(&quot;#SvgjsLinearGradient2334&quot;)" stroke-linecap="round" class="Down"></path><path d="M476 483L475 667" stroke-width="10" stroke="url(&quot;#SvgjsLinearGradient2334&quot;)" stroke-linecap="round" class="Down"></path><path d="M691 387L690 170" stroke-width="8" stroke="url(&quot;#SvgjsLinearGradient2334&quot;)" stroke-linecap="round" class="Down"></path><path d="M1414 479L1413 673" stroke-width="8" stroke="url(&quot;#SvgjsLinearGradient2335&quot;)" stroke-linecap="round" class="Up"></path><path d="M765 527L764 763" stroke-width="8" stroke="url(&quot;#SvgjsLinearGradient2335&quot;)" stroke-linecap="round" class="Up"></path><path d="M1161 169L1160 337" stroke-width="8" stroke="url(&quot;#SvgjsLinearGradient2335&quot;)" stroke-linecap="round" class="Up"></path><path d="M1300 324L1299 -24" stroke-width="8" stroke="url(&quot;#SvgjsLinearGradient2335&quot;)" stroke-linecap="round" class="Up"></path><path d="M39 340L38 -66" stroke-width="6" stroke="url(&quot;#SvgjsLinearGradient2335&quot;)" stroke-linecap="round" class="Up"></path><path d="M878 93L877 -303" stroke-width="6" stroke="url(&quot;#SvgjsLinearGradient2335&quot;)" stroke-linecap="round" class="Up"></path><path d="M104 503L103 353" stroke-width="10" stroke="url(&quot;#SvgjsLinearGradient2334&quot;)" stroke-linecap="round" class="Down"></path><path d="M452 347L451 641" stroke-width="8" stroke="url(&quot;#SvgjsLinearGradient2335&quot;)" stroke-linecap="round" class="Up"></path><path d="M810 467L809 114" stroke-width="6" stroke="url(&quot;#SvgjsLinearGradient2334&quot;)" stroke-linecap="round" class="Down"></path><path d="M189 210L188 463" stroke-width="8" stroke="url(&quot;#SvgjsLinearGradient2335&quot;)" stroke-linecap="round" class="Up"></path><path d="M114 28L113 -318" stroke-width="10" stroke="url(&quot;#SvgjsLinearGradient2335&quot;)" stroke-linecap="round" class="Up"></path><path d="M1324 4L1323 -364" stroke-width="6" stroke="url(&quot;#SvgjsLinearGradient2335&quot;)" stroke-linecap="round" class="Up"></path><path d="M186 115L185 431" stroke-width="8" stroke="url(&quot;#SvgjsLinearGradient2334&quot;)" stroke-linecap="round" class="Down"></path><path d="M1200 286L1199 489" stroke-width="6" stroke="url(&quot;#SvgjsLinearGradient2334&quot;)" stroke-linecap="round" class="Down"></path><path d="M29 229L28 413" stroke-width="8" stroke="url(&quot;#SvgjsLinearGradient2334&quot;)" stroke-linecap="round" class="Down"></path><path d="M847 393L846 80" stroke-width="6" stroke="url(&quot;#SvgjsLinearGradient2334&quot;)" stroke-linecap="round" class="Down"></path><path d="M30 530L29 760" stroke-width="8" stroke="url(&quot;#SvgjsLinearGradient2335&quot;)" stroke-linecap="round" class="Up"></path><path d="M132 78L131 -333" stroke-width="8" stroke="url(&quot;#SvgjsLinearGradient2334&quot;)" stroke-linecap="round" class="Down"></path><path d="M110 152L109 449" stroke-width="10" stroke="url(&quot;#SvgjsLinearGradient2334&quot;)" stroke-linecap="round" class="Down"></path><path d="M723 4L722 355" stroke-width="8" stroke="url(&quot;#SvgjsLinearGradient2335&quot;)" stroke-linecap="round" class="Up"></path><path d="M674 236L673 589" stroke-width="10" stroke="url(&quot;#SvgjsLinearGradient2334&quot;)" stroke-linecap="round" class="Down"></path><path d="M648 95L647 247" stroke-width="8" stroke="url(&quot;#SvgjsLinearGradient2334&quot;)" stroke-linecap="round" class="Down"></path><path d="M1080 230L1079 412" stroke-width="6" stroke="url(&quot;#SvgjsLinearGradient2334&quot;)" stroke-linecap="round" class="Down"></path><path d="M262 3L261 272" stroke-width="8" stroke="url(&quot;#SvgjsLinearGradient2334&quot;)" stroke-linecap="round" class="Down"></path><path d="M1119 141L1118 -124" stroke-width="6" stroke="url(&quot;#SvgjsLinearGradient2335&quot;)" stroke-linecap="round" class="Up"></path><path d="M558 45L557 187" stroke-width="8" stroke="url(&quot;#SvgjsLinearGradient2334&quot;)" stroke-linecap="round" class="Down"></path><path d="M92 355L91 4" stroke-width="8" stroke="url(&quot;#SvgjsLinearGradient2334&quot;)" stroke-linecap="round" class="Down"></path><path d="M755 395L754 206" stroke-width="8" stroke="url(&quot;#SvgjsLinearGradient2335&quot;)" stroke-linecap="round" class="Up"></path><path d="M1252 365L1251 607" stroke-width="10" stroke="url(&quot;#SvgjsLinearGradient2334&quot;)" stroke-linecap="round" class="Down"></path></g><defs><mask id="SvgjsMask2332"><rect width="1440" height="560" fill="#ffffff"></rect></mask><linearGradient x1="15.28%" y1="-39.29%" x2="84.72%" y2="139.29%" gradientUnits="userSpaceOnUse" id="SvgjsLinearGradient2333"><stop stop-color="#0e2a47" offset="0"></stop><stop stop-color="rgba(79, 46, 101, 1)" offset="1"></stop></linearGradient><linearGradient x1="0%" y1="0%" x2="0%" y2="100%" id="SvgjsLinearGradient2334"><stop stop-color="rgba(114, 52, 114, 0)" offset="0"></stop><stop stop-color="rgba(114, 52, 114, 1)" offset="1"></stop></linearGradient><linearGradient x1="0%" y1="100%" x2="0%" y2="0%" id="SvgjsLinearGradient2335"><stop stop-color="rgba(114, 52, 114, 0)" offset="0"></stop><stop stop-color="rgba(114, 52, 114, 1)" offset="1"></stop></linearGradient></defs></svg>